<?xml version="1.0" encoding="UTF-8"?>
<svg width="59px" height="60px" viewBox="0 0 59 60" version="1.1" xmlns="http://www.w3.org/2000/svg" xmlns:xlink="http://www.w3.org/1999/xlink">
    <title>USDT</title>
    <defs>
        <rect id="path-1" x="0" y="0" width="59" height="60"></rect>
    </defs>
    <g id="页面-1" stroke="none" stroke-width="1" fill="none" fill-rule="evenodd">
        <g id="Menu" transform="translate(-1121.000000, -581.000000)">
            <g id="USDT-2" transform="translate(1121.000000, 581.000000)">
                <g id="USDT">
                    <mask id="mask-2" fill="white">
                        <use xlink:href="#path-1"></use>
                    </mask>
                    <use id="矩形" fill="#D8D8D8" opacity="0" xlink:href="#path-1"></use>
                    <g id="编组" mask="url(#mask-2)" fill="#14AA84" fill-rule="nonzero">
                        <g transform="translate(9.000000, 11.000000)" id="形状">
                            <path d="M24.5363219,12.4694031 L24.5363219,7.6 L35.7953507,7.6 L35.7953507,-1.13686838e-13 L5.2045903,-1.13686838e-13 L5.2045903,7.6 L16.4636781,7.6 L16.4636781,12.4694031 C7.07481108,12.9064031 0,14.8376344 0,17.1542687 C0,19.4709031 7.07481108,21.4021344 16.4636781,21.8364031 L16.4636781,38 L24.5363219,38 L24.5363219,21.8391344 C33.9251889,21.4021344 41,19.4709031 41,17.1542687 C41,14.8376344 33.9251889,12.9064031 24.5363219,12.4694031 Z M20.3690975,20.046425 C10.2186536,20.046425 1.992125,18.393425 1.992125,16.3550219 C1.992125,14.5873094 8.17725949,13.1100594 16.437657,12.7484062 L16.437657,18.6350219 L24.5115988,18.6350219 L24.5115988,12.7585 C32.6651383,13.1357687 38.7447719,14.6028656 38.7447719,16.3549625 C38.7447719,18.3906344 30.5176533,20.046425 20.3690975,20.046425 L20.3690975,20.046425 Z"></path>
                        </g>
                    </g>
                </g>
            </g>
        </g>
    </g>
</svg>